<svg width="31" height="27" viewBox="0 0 31 27" fill="none" xmlns="http://www.w3.org/2000/svg">
<path d="M25.7981 3.36062V1.44431H25.1114V1.07877H26.9169V1.44431H26.2301V3.36062H25.7981ZM27.3544 3.36062V1.07877H28.0135L28.6283 2.82892H28.6449L29.2597 1.07877H29.9188V3.36062H29.4868V1.45538H29.4757L28.8111 3.36062H28.4621L27.7975 1.45538H27.7864V3.36062H27.3544Z" fill="#242424"/>
<path d="M7.50263 9.22742L6.59173 15.8521C6.58142 15.9271 6.66436 15.9791 6.7274 15.9373L8.43421 14.8039C8.71633 14.6166 9.08099 14.608 9.37158 14.7819L18.4371 20.207C19.8722 21.0658 21.7181 20.1799 21.9459 18.5231L22.8546 11.9146C22.8649 11.8393 22.7814 11.7873 22.7184 11.8298L21.0822 12.9336C20.8005 13.1237 20.4345 13.1343 20.1423 12.9609L11.0039 7.53901C9.56883 6.68758 7.72993 7.57435 7.50263 9.22742Z" fill="#242424"/>
<path d="M8.69009 15.3285L6.52864 16.755C6.50788 16.7687 6.4939 16.7906 6.49017 16.8152L5.61294 22.5963C5.48543 23.4366 6.39818 24.0426 7.12316 23.599L14.8708 18.858C14.9273 18.8235 14.9267 18.7413 14.8698 18.7075L9.15633 15.3174C9.0116 15.2315 8.83054 15.2358 8.69009 15.3285Z" fill="#242424"/>
<path d="M20.8358 12.3761L22.9842 10.9298C23.0048 10.916 23.0185 10.8941 23.0221 10.8695L23.8914 4.85858C24.0144 4.00813 23.0781 3.40902 22.3575 3.87705L14.6192 8.90264C14.5643 8.93832 14.5663 9.01941 14.6229 9.05232L20.3697 12.3915C20.5152 12.4761 20.6962 12.4701 20.8358 12.3761Z" fill="#242424"/>
</svg>
