<svg width="44" height="39" viewBox="0 0 44 39" fill="none" xmlns="http://www.w3.org/2000/svg">
<path d="M37.264 4.632V1.864H36.272V1.336H38.88V1.864H37.888V4.632H37.264ZM39.512 4.632V1.336H40.464L41.352 3.864H41.376L42.264 1.336H43.216V4.632H42.592V1.88H42.576L41.616 4.632H41.112L40.152 1.88H40.136V4.632H39.512Z" fill="white"/>
<path d="M10.8372 13.3287L9.52144 22.8977C9.50655 23.006 9.62635 23.0812 9.7174 23.0207L12.1828 21.3836C12.5903 21.113 13.117 21.1007 13.5368 21.3518L26.6314 29.188C28.7043 30.4285 31.3707 29.1489 31.6997 26.7557L33.0123 17.2102C33.0272 17.1014 32.9065 17.0263 32.8155 17.0876L30.452 18.6821C30.0452 18.9566 29.5166 18.972 29.0945 18.7215L15.8945 10.8899C13.8217 9.66003 11.1655 10.9409 10.8372 13.3287Z" fill="white"/>
<path d="M12.5524 22.1413L9.43034 24.2018C9.40035 24.2216 9.38016 24.2531 9.37477 24.2887L8.10766 32.6391C7.92347 33.8529 9.2419 34.7283 10.2891 34.0875L21.4802 27.2395C21.5618 27.1896 21.5609 27.0708 21.4787 27.022L13.2259 22.1252C13.0168 22.0011 12.7553 22.0074 12.5524 22.1413Z" fill="white"/>
<path d="M30.0962 17.8764L33.1994 15.7873C33.2292 15.7673 33.249 15.7357 33.2542 15.7002L34.5099 7.01775C34.6875 5.78932 33.3351 4.92395 32.2942 5.59999L21.1167 12.8592C21.0373 12.9107 21.0402 13.0278 21.122 13.0754L29.4229 17.8987C29.6331 18.0208 29.8945 18.0121 30.0962 17.8764Z" fill="white"/>
</svg>
