<svg width="32" height="28" viewBox="0 0 32 28" fill="none" xmlns="http://www.w3.org/2000/svg">
<path d="M26.7538 3.2999V1.31262H26.0416V0.933538H27.914V1.31262H27.2018V3.2999H26.7538ZM28.3677 3.2999V0.933538H29.0512L29.6887 2.74851H29.706L30.3435 0.933538H31.027V3.2999H30.579V1.3241H30.5675L29.8783 3.2999H29.5164L28.8272 1.3241H28.8157V3.2999H28.3677Z" fill="#00DDF9"/>
<path d="M7.78074 9.56949L6.8361 16.4395C6.82541 16.5173 6.91142 16.5713 6.97679 16.5279L8.74682 15.3525C9.03939 15.1582 9.41755 15.1494 9.71891 15.3297L19.1202 20.9557C20.6084 21.8463 22.5227 20.9276 22.759 19.2094L23.7013 12.3562C23.712 12.2781 23.6254 12.2242 23.56 12.2682L21.8632 13.413C21.5711 13.6101 21.1916 13.6211 20.8885 13.4413L11.4117 7.81855C9.92346 6.93558 8.01646 7.8552 7.78074 9.56949Z" fill="#00DDF9"/>
<path d="M9.01211 15.8963L6.7706 17.3756C6.74907 17.3898 6.73457 17.4125 6.7307 17.438L5.82098 23.4332C5.68875 24.3047 6.63531 24.9332 7.38714 24.4731L15.4218 19.5565C15.4803 19.5207 15.4798 19.4355 15.4207 19.4004L9.49561 15.8847C9.34553 15.7957 9.15776 15.8002 9.01211 15.8963Z" fill="#00DDF9"/>
<path d="M21.6076 12.8347L23.8356 11.3348C23.8569 11.3205 23.8712 11.2977 23.8749 11.2723L24.7764 5.03871C24.904 4.15676 23.933 3.53547 23.1857 4.02083L15.1608 9.23256C15.1038 9.26956 15.1059 9.35365 15.1646 9.38778L21.1242 12.8507C21.2751 12.9383 21.4628 12.9321 21.6076 12.8347Z" fill="#00DDF9"/>
</svg>
