<svg width="161" height="75" viewBox="0 0 161 75" fill="none" xmlns="http://www.w3.org/2000/svg">
<rect x="1" y="1" width="159" height="73" stroke="#D1D1D1" stroke-width="0.3"/>
<mask id="mask0_7_316" style="mask-type:alpha" maskUnits="userSpaceOnUse" x="-2" y="1" width="162" height="73">
<rect x="-2" y="1" width="162" height="72.9481" fill="#D9D9D9"/>
</mask>
<g mask="url(#mask0_7_316)">
<path d="M24.0194 26.5209L21.8087 42.5981C21.7837 42.78 21.985 42.9064 22.1379 42.8048L26.2802 40.0543C26.9648 39.5996 27.8498 39.5789 28.555 40.0009L50.5558 53.1669C54.0385 55.2511 58.5183 53.1012 59.0712 49.0803L61.2765 33.0425C61.3016 32.8598 61.0988 32.7335 60.946 32.8366L56.975 35.5156C56.2914 35.9767 55.4033 36.0025 54.6941 35.5817L32.5165 22.4234C29.0338 20.3571 24.5711 22.5091 24.0194 26.5209Z" fill="#D1D1D1"/>
<path d="M26.9012 41.327L21.6556 44.7889C21.6052 44.8222 21.5713 44.8752 21.5622 44.9349L19.4332 58.9648C19.1238 61.0042 21.3389 62.475 23.0983 61.3983L41.901 49.8927C42.038 49.8089 42.0366 49.6094 41.8985 49.5274L28.0327 41.2999C27.6814 41.0915 27.242 41.102 26.9012 41.327Z" fill="#D1D1D1"/>
<path d="M56.3771 34.1614L61.591 30.6515C61.641 30.6179 61.6744 30.5647 61.683 30.5051L63.7928 15.9174C64.0914 13.8535 61.8191 12.3995 60.0702 13.5354L41.2904 25.7317C41.157 25.8183 41.1619 26.0151 41.2994 26.095L55.2459 34.1988C55.5991 34.404 56.0383 34.3895 56.3771 34.1614Z" fill="#D1D1D1"/>
<path d="M67.9601 36.9586L69.737 24.3782H72.7044L77.4842 33.7246H77.5197L78.8346 24.3782H81.0735L79.2966 36.9586H76.4536L71.5849 27.3101H71.5494L70.1989 36.9586H67.9601ZM81.9246 36.9586L83.7015 24.3782H92.0352L91.7331 26.4038H85.6383L85.2119 29.4956H90.9868L90.7025 31.5213H84.9276L84.4478 34.9329H90.8624L90.5781 36.9586H81.9246ZM92.6096 36.9586L94.3865 24.3782H98.7576C101.174 24.3782 103.324 25.16 102.933 27.9853C102.685 29.7977 101.441 31.1304 99.5395 31.3969L102.098 36.9586H99.3973L97.2295 31.6279H95.5948L94.8485 36.9586H92.6096ZM95.8613 29.7089H97.6027C98.8643 29.7089 100.357 29.6023 100.588 27.9675C100.801 26.4749 99.4329 26.2972 98.2779 26.2972H96.3411L95.8613 29.7089ZM103.624 36.9586L105.401 24.3782H113.735L113.433 26.4038H107.338L106.911 29.4956H112.686L112.402 31.5213H106.627L106.147 34.9329H112.562L112.278 36.9586H103.624ZM126.161 24.3782L125.042 32.3387C124.615 35.3772 122.145 37.2784 119.267 37.2784C116.388 37.2784 114.487 35.3772 114.913 32.3387L116.033 24.3782H118.272L117.152 32.2676C116.975 33.5114 117.419 35.1462 119.569 35.1462C121.719 35.1462 122.625 33.5114 122.803 32.2676L123.922 24.3782H126.161ZM136.479 25.3555L134.596 27.0791C134.205 26.4038 133.405 26.084 132.534 26.084C131.504 26.084 130.402 26.546 130.242 27.701C129.887 30.2242 136.07 28.7849 135.431 33.2627C135.058 35.9635 132.73 37.2784 130.26 37.2784C128.696 37.2784 127.239 36.7987 126.386 35.5726L128.305 33.9379C128.732 34.773 129.603 35.2528 130.598 35.2528C131.628 35.2528 132.89 34.6842 133.05 33.5292C133.441 30.775 127.239 32.3564 127.879 27.8609C128.234 25.2666 130.722 24.0583 133.05 24.0583C134.365 24.0583 135.626 24.4315 136.479 25.3555Z" fill="#D1D1D1"/>
<path d="M68.7335 45.6614L69.473 40.4091H67.5352L67.6457 39.6442H72.3371L72.2266 40.4091H70.2888L69.5494 45.6614H68.7335ZM72.4834 45.6614L73.3333 39.6442H77.2173L77.1068 40.4091H74.0387L73.7838 42.2023H76.6394L76.5374 42.9673H73.6818L73.4098 44.8965H76.6309L76.5204 45.6614H72.4834ZM83.2034 40.4261L82.447 40.9445C82.1665 40.5026 81.6396 40.2561 81.0871 40.2561C79.7358 40.2561 78.6989 41.3355 78.5035 42.7038C78.325 43.9701 79.0134 45.0495 80.4157 45.0495C81.1041 45.0495 81.6735 44.7435 82.0985 44.2421L82.7189 44.7605C82.5064 45.007 81.6651 45.8144 80.2882 45.8144C78.376 45.8144 77.4241 44.2166 77.6366 42.7038C77.9 40.834 79.3703 39.4912 81.2231 39.4912C82.0135 39.4912 82.8039 39.7887 83.2034 40.4261ZM83.5782 45.6614L84.4281 39.6442H85.244L84.887 42.1429H88.0061L88.3631 39.6442H89.179L88.3291 45.6614H87.5132L87.9041 42.9078H84.785L84.3941 45.6614H83.5782ZM89.6227 45.6614L90.4726 39.6442H91.5434L94.1611 44.5905H94.1781L94.875 39.6442H95.6909L94.841 45.6614H93.8042L91.1525 40.715H91.1355L90.4386 45.6614H89.6227ZM98.9961 45.8144C97.1604 45.8144 96.0555 44.4376 96.3105 42.6528C96.5569 40.868 98.0528 39.4912 99.8885 39.4912C101.724 39.4912 102.829 40.868 102.583 42.6528C102.328 44.4376 100.832 45.8144 98.9961 45.8144ZM99.1066 45.0495C100.483 45.0495 101.529 43.9701 101.716 42.6528C101.903 41.3355 101.155 40.2561 99.778 40.2561C98.4012 40.2561 97.3643 41.3355 97.1774 42.6528C96.9904 43.9701 97.7298 45.0495 99.1066 45.0495ZM103.246 45.6614L104.096 39.6442H104.912L104.172 44.8965H106.934L106.824 45.6614H103.246ZM110.305 45.8144C108.469 45.8144 107.364 44.4376 107.619 42.6528C107.865 40.868 109.361 39.4912 111.197 39.4912C113.033 39.4912 114.138 40.868 113.891 42.6528C113.636 44.4376 112.14 45.8144 110.305 45.8144ZM110.415 45.0495C111.792 45.0495 112.837 43.9701 113.024 42.6528C113.211 41.3355 112.463 40.2561 111.087 40.2561C109.71 40.2561 108.673 41.3355 108.486 42.6528C108.299 43.9701 109.038 45.0495 110.415 45.0495ZM118.09 42.2958H120.24L119.824 45.262C119.186 45.6189 118.192 45.8144 117.461 45.8144C115.421 45.8144 114.452 44.3611 114.69 42.6528C114.937 40.868 116.433 39.4912 118.268 39.4912C119.373 39.4912 120.002 39.7887 120.402 40.2731L119.739 40.8935C119.314 40.4176 118.761 40.2561 118.158 40.2561C116.781 40.2561 115.744 41.3355 115.557 42.6528C115.362 44.0126 116.229 45.0495 117.555 45.0495C118.124 45.0495 118.685 44.939 119.076 44.735L119.314 43.0607H117.979L118.09 42.2958ZM121.339 45.6614L122.189 39.6442H123.005L122.155 45.6614H121.339ZM123.62 45.6614L124.47 39.6442H128.354L128.243 40.4091H125.175L124.92 42.2023H127.776L127.674 42.9673H124.818L124.546 44.8965H127.767L127.657 45.6614H123.62ZM128.416 44.9815L129.172 44.4036C129.393 44.8455 129.869 45.0495 130.354 45.0495C130.889 45.0495 131.603 44.7095 131.696 44.0466C131.892 42.6613 128.798 43.5197 129.13 41.174C129.232 40.4686 129.963 39.4912 131.407 39.4912C132.062 39.4912 132.674 39.6272 133.048 40.1796L132.3 40.783C132.138 40.4686 131.764 40.2561 131.297 40.2561C130.396 40.2561 130.048 40.8 129.997 41.174C129.784 42.6953 132.878 41.7859 132.572 43.9531C132.41 45.1175 131.373 45.8144 130.218 45.8144C129.444 45.8144 128.747 45.5509 128.416 44.9815Z" fill="#D1D1D1"/>
</g>
<path d="M137.738 23.744V19.938H136.374V19.212H139.96V19.938H138.596V23.744H137.738ZM140.829 23.744V19.212H142.138L143.359 22.688H143.392L144.613 19.212H145.922V23.744H145.064V19.96H145.042L143.722 23.744H143.029L141.709 19.96H141.687V23.744H140.829Z" fill="#D1D1D1"/>
</svg>
