<svg width="563" height="36" viewBox="0 0 563 36" fill="none" xmlns="http://www.w3.org/2000/svg">
<path d="M0 13H562.5" stroke="#00DDF9"/>
<path d="M0 9H562.5" stroke="#00DDF9" stroke-width="0.3" stroke-dasharray="3 3"/>
<path d="M11.7879 35.7121C11.905 35.8293 12.095 35.8293 12.2121 35.7121L14.1213 33.8029C14.2385 33.6858 14.2385 33.4958 14.1213 33.3787C14.0042 33.2615 13.8142 33.2615 13.6971 33.3787L12 35.0757L10.3029 33.3787C10.1858 33.2615 9.99584 33.2615 9.87868 33.3787C9.76152 33.4958 9.76152 33.6858 9.87868 33.8029L11.7879 35.7121ZM12 0H11.7V35.5H12H12.3V0H12Z" fill="#00DDF9"/>
<path d="M129.788 35.7121C129.905 35.8293 130.095 35.8293 130.212 35.7121L132.121 33.8029C132.238 33.6858 132.238 33.4958 132.121 33.3787C132.004 33.2615 131.814 33.2615 131.697 33.3787L130 35.0757L128.303 33.3787C128.186 33.2615 127.996 33.2615 127.879 33.3787C127.762 33.4958 127.762 33.6858 127.879 33.8029L129.788 35.7121ZM130 0H129.7V35.5H130H130.3V0H130Z" fill="#00DDF9"/>
<path d="M247.788 35.7121C247.905 35.8293 248.095 35.8293 248.212 35.7121L250.121 33.8029C250.238 33.6858 250.238 33.4958 250.121 33.3787C250.004 33.2615 249.814 33.2615 249.697 33.3787L248 35.0757L246.303 33.3787C246.186 33.2615 245.996 33.2615 245.879 33.3787C245.762 33.4958 245.762 33.6858 245.879 33.8029L247.788 35.7121ZM248 0H247.7V35.5H248H248.3V0H248Z" fill="#00DDF9"/>
<path d="M365.788 35.7121C365.905 35.8293 366.095 35.8293 366.212 35.7121L368.121 33.8029C368.238 33.6858 368.238 33.4958 368.121 33.3787C368.004 33.2615 367.814 33.2615 367.697 33.3787L366 35.0757L364.303 33.3787C364.186 33.2615 363.996 33.2615 363.879 33.3787C363.762 33.4958 363.762 33.6858 363.879 33.8029L365.788 35.7121ZM366 0H365.7V35.5H366H366.3V0H366Z" fill="#00DDF9"/>
<path d="M483.788 35.7121C483.905 35.8293 484.095 35.8293 484.212 35.7121L486.121 33.8029C486.238 33.6858 486.238 33.4958 486.121 33.3787C486.004 33.2615 485.814 33.2615 485.697 33.3787L484 35.0757L482.303 33.3787C482.186 33.2615 481.996 33.2615 481.879 33.3787C481.762 33.4958 481.762 33.6858 481.879 33.8029L483.788 35.7121ZM484 0H483.7V35.5H484H484.3V0H484Z" fill="#00DDF9"/>
</svg>
