<svg width="563" height="324" viewBox="0 0 563 324" fill="none" xmlns="http://www.w3.org/2000/svg">
<path d="M491.249 13.9746L493.75 16.125L493.652 16.2383L496.152 18.3887L496.25 18.2754V18.2744L498.749 20.4248H498.75L498.652 20.5391L499.902 21.6133L499.944 21.6504H501.432V21.5H504.296V21.6504H507.159V21.5H510.022V21.6504H512.887V21.5H515.75V21.6504H518.613V21.5H521.478V21.6504H524.341V21.5H527.204V21.6504H530.068V21.5H532.932V21.6504H535.796V21.5H538.659V21.6504H541.522V21.5H544.387V21.6504H547.25V21.5H550.113V21.6504H552.978V21.5H555.841V21.6504H558.704V21.5H561.568V21.6504H562.85V23.0098H563V26.0303H562.85V29.0498H563V32.0703H562.85V35.0898H563V38.1104H562.85V41.1299H563V44.1504H562.85V47.1699H563V50.1895H562.85V53.21H563V56.2295H562.85V59.25H563V62.2695H562.85V65.29H563V68.3096H562.85V71.3301H563V74.3496H562.85V77.3701H563V80.3896H562.85V83.4102H563V86.4297H562.85V89.4502H563V92.4697H562.85V95.4902H563V98.5098H562.85V101.53H563V104.55H562.85V107.57H563V110.59H562.85V113.61H563V116.63H562.85V119.65H563V122.67H562.85V125.69H563V128.71H562.85V131.729H563V134.75H562.85V137.77H563V140.79H562.85V143.81H563V146.83H562.85V149.85H563V152.87H562.85V155.89H563V158.91H562.85V161.93H563V164.95H562.85V167.97H563V170.99H562.85V174.01H563V177.03H562.85V180.05H563V183.07H562.85V186.09H563V189.11H562.85V192.13H563V195.15H562.85V198.17H563V201.19H562.85V204.21H563V207.23H562.85V210.25H563V213.271H562.85V216.29H563V219.31H562.85V222.33H563V225.35H562.85V228.37H563V231.39H562.85V234.41H563V237.43H562.85V240.45H563V243.47H562.85V246.49H563V249.51H562.85V252.53H563V255.55H562.85V258.57H563V261.59H562.85V264.61H563V267.63H562.85V270.65H563V273.67H562.85V276.69H563V279.71H562.85V282.73H563V285.75H562.85V288.77H563V291.79H562.85V294.81H563V297.83H562.85V300.85H563V303.87H562.85V306.89H563V309.91H562.85V312.93H563V315.95H562.85V318.97H563V321.99H562.85V323.35H561.498V323.5H558.494V323.35H555.491V323.5H552.488V323.35H549.484V323.5H546.481V323.35H543.479V323.5H540.476V323.35H537.472V323.5H534.469V323.35H531.466V323.5H528.462V323.35H525.459V323.5H522.456V323.35H519.452V323.5H516.449V323.35H513.446V323.5H510.442V323.35H507.439V323.5H504.437V323.35H501.433V323.5H498.43V323.35H495.427V323.5H492.424V323.35H489.42V323.5H486.417V323.35H483.414V323.5H480.41V323.35H477.407V323.5H474.404V323.35H471.4V323.5H468.397V323.35H465.395V323.5H462.391V323.35H459.388V323.5H456.385V323.35H453.381V323.5H450.378V323.35H447.375V323.5H444.372V323.35H441.368V323.5H438.365V323.35H435.362V323.5H432.358V323.35H429.355V323.5H426.353V323.35H423.349V323.5H420.346V323.35H417.343V323.5H414.339V323.35H411.336V323.5H408.333V323.35H405.329V323.5H402.326V323.35H399.323V323.5H396.32V323.35H393.316V323.5H390.313V323.35H387.311V323.5H384.307V323.35H381.304V323.5H378.301V323.35H375.297V323.5H372.294V323.35H369.291V323.5H366.287V323.35H363.284V323.5H360.281V323.35H357.277V323.5H354.274V323.35H351.271V323.5H348.268V323.35H345.265V323.5H342.262V323.35H339.258V323.5H336.255V323.35H333.252V323.5H330.249V323.35H327.245V323.5H324.242V323.35H321.239V323.5H318.235V323.35H315.232V323.5H312.229V323.35H309.226V323.5H306.223V323.35H303.22V323.5H300.216V323.35H297.213V323.5H294.21V323.35H291.206V323.5H288.203V323.35H285.2V323.5H282.196V323.35H279.193V323.5H276.19V323.35H273.187V323.5H270.184V323.35H267.181V323.5H264.177V323.35H261.174V323.5H258.171V323.35H255.167V323.5H252.164V323.35H249.161V323.5H246.157V323.35H243.154V323.5H240.151V323.35H237.147V323.5H234.145V323.35H231.142V323.5H228.138V323.35H225.135V323.5H222.132V323.35H219.128V323.5H216.125V323.35H213.122V323.5H210.118V323.35H207.115V323.5H204.112V323.35H201.108V323.5H198.105V323.35H195.103V323.5H192.099V323.35H189.096V323.5H186.093V323.35H183.089V323.5H180.086V323.35H177.083V323.5H174.079V323.35H171.076V323.5H168.073V323.35H165.069V323.5H162.066V323.35H159.063V323.5H156.06V323.35H153.057V323.5H150.054V323.35H147.051V323.5H144.047V323.35H141.044V323.5H138.041V323.35H135.037V323.5H132.034V323.35H129.031V323.5H126.027V323.35H123.024V323.5H120.021V323.35H117.018V323.5H114.015V323.35H111.012V323.5H108.008V323.35H105.005V323.5H102.002V323.35H100.554L99.5342 322.489L99.4375 322.604L97.3125 320.812L97.4092 320.698L95.2842 318.906L95.1865 319.021L93.0625 317.229L93.1592 317.114L91.0342 315.323L90.9375 315.438L88.8115 313.646L88.9092 313.531L86.7842 311.739L86.6875 311.854L84.5625 310.062L84.6592 309.948L82.5342 308.156L82.4365 308.271L80.3125 306.479L80.4092 306.364L78.2842 304.573L78.1875 304.688L76.0615 302.896L76.1592 302.781L75.0967 301.886L75.0547 301.85H73.5576V302H70.6729V301.85H67.7881V302H64.9043V301.85H62.0195V302H59.1348V301.85H56.25V302H53.3652V301.85H50.4805V302H47.5957V301.85H44.7119V302H41.8271V301.85H38.9424V302H36.0576V301.85H33.1729V302H30.2881V301.85H27.4043V302H24.5195V301.85H21.6348V302H18.75V301.85H15.8652V302H12.9805V301.85H10.0957V302H7.21191V301.85H4.32715V302H1.44238V301.85H0.150391V300.49H0V297.47H0.150391V294.45H0V291.43H0.150391V288.41H0V285.39H0.150391V282.37H0V279.35H0.150391V276.33H0V273.311H0.150391V270.29H0V267.271H0.150391V264.25H0V261.23H0.150391V258.21H0V255.19H0.150391V252.17H0V249.15H0.150391V246.13H0V243.11H0.150391V240.09H0V237.07H0.150391V234.05H0V231.03H0.150391V228.01H0V224.99H0.150391V221.97H0V218.95H0.150391V215.93H0V212.91H0.150391V209.89H0V206.87H0.150391V203.85H0V200.83H0.150391V197.81H0V194.79H0.150391V191.771H0V188.75H0.150391V185.73H0V182.71H0.150391V179.69H0V176.67H0.150391V173.65H0V170.63H0.150391V167.61H0V164.59H0.150391V161.57H0V158.55H0.150391V155.53H0V152.51H0.150391V149.49H0V146.47H0.150391V143.45H0V140.43H0.150391V137.41H0V134.39H0.150391V131.37H0V128.35H0.150391V125.33H0V122.31H0.150391V119.29H0V116.27H0.150391V113.25H0V110.229H0.150391V107.21H0V104.19H0.150391V101.17H0V98.1504H0.150391V95.1299H0V92.1104H0.150391V89.0898H0V86.0703H0.150391V83.0498H0V80.0303H0.150391V77.0098H0V73.9902H0.150391V70.9697H0V67.9502H0.150391V64.9297H0V61.9102H0.150391V58.8896H0V55.8701H0.150391V52.8496H0V49.8301H0.150391V46.8096H0V43.79H0.150391V40.7695H0V37.75H0.150391V34.7305H0V31.71H0.150391V28.6904H0V25.6699H0.150391V22.6504H0V19.6299H0.150391V16.6104H0V13.5898H0.150391V10.5703H0V7.5498H0.150391V4.53027H0V1.50977H0.150391V0.150391H1.50391V0H4.50977V0.150391H7.5166V0H10.5225V0.150391H13.5293V0H16.5352V0.150391H19.542V0H22.5479V0.150391H25.5547V0H28.5605V0.150391H31.5674V0H34.5732V0.150391H37.5801V0H40.5859V0.150391H43.5918V0H46.5986V0.150391H49.6045V0H52.6113V0.150391H55.6172V0H58.624V0.150391H61.6299V0H64.6367V0.150391H67.6426V0H70.6494V0.150391H73.6553V0H76.6621V0.150391H79.668V0H82.6748V0.150391H85.6807V0H88.6875V0.150391H91.6934V0H94.6992V0.150391H97.7061V0H100.712V0.150391H103.719V0H106.725V0.150391H109.731V0H112.737V0.150391H115.744V0H118.75V0.150391H121.757V0H124.763V0.150391H127.77V0H130.775V0.150391H133.782V0H136.788V0.150391H139.795V0H142.801V0.150391H145.807V0H148.813V0.150391H151.819V0H154.826V0.150391H157.832V0H160.839V0.150391H163.845V0H166.852V0.150391H169.857V0H172.864V0.150391H175.87V0H178.877V0.150391H181.883V0H184.89V0.150391H187.896V0H190.901V0.150391H193.908V0H196.914V0.150391H199.921V0H202.927V0.150391H205.934V0H208.939V0.150391H211.946V0H214.952V0.150391H217.959V0H220.965V0.150391H223.972V0H226.978V0.150391H229.984V0H232.99V0.150391H235.997V0H239.003V0.150391H242.01V0H245.016V0.150391H248.022V0H251.028V0.150391H254.034V0H257.041V0.150391H260.047V0H263.054V0.150391H266.06V0H269.066V0.150391H272.072V0H275.079V0.150391H278.085V0H281.092V0.150391H284.098V0H287.104V0.150391H290.11V0H293.117V0.150391H296.123V0H299.13V0.150391H302.136V0H305.143V0.150391H308.148V0H311.155V0.150391H314.161V0H317.168V0.150391H320.174V0H323.181V0.150391H326.187V0H329.193V0.150391H332.199V0H335.206V0.150391H338.212V0H341.219V0.150391H344.225V0H347.23V0.150391H350.237V0H353.243V0.150391H356.25V0H359.256V0.150391H362.263V0H365.269V0.150391H368.275V0H371.281V0.150391H374.288V0H377.294V0.150391H380.301V0H383.307V0.150391H386.313V0H389.319V0.150391H392.326V0H395.332V0.150391H398.339V0H401.345V0.150391H404.352V0H407.357V0.150391H410.364V0H413.37V0.150391H416.377V0H419.383V0.150391H422.39V0H425.396V0.150391H428.402V0H431.408V0.150391H434.415V0H437.421V0.150391H440.427V0H443.434V0.150391H446.439V0H449.446V0.150391H452.452V0H455.459V0.150391H458.465V0H461.472V0.150391H464.478V0H467.484V0.150391H470.49V0H473.497V0.150391H474.945L476.152 1.18848L476.25 1.0752V1.07422L478.749 3.22461H478.75L478.652 3.33887L481.152 5.48828L481.25 5.375L483.75 7.52441V7.52539L483.652 7.63867L486.152 9.78906L486.249 9.6748L488.75 11.8242V11.8252L488.652 11.9385L491.152 14.0889L491.249 13.9746Z" stroke="white" stroke-width="0.3" stroke-dasharray="3 3"/>
</svg>
